<?xml version="1.0" standalone="no"?>
<!DOCTYPE svg PUBLIC "-//W3C//DTD SVG 1.1//EN" "http://www.w3.org/Graphics/SVG/1.1/DTD/svg11.dtd" >
<svg xmlns="http://www.w3.org/2000/svg">
<metadata>
This is a custom SVG webfont generated by Font Squirrel.
Copyright   : Typeface  TechFussion 2010 All Rights Reserved
Designer    : Yun Gonzalez
Foundry     : TechFonts by TechFussion
</metadata>
<defs>
<font id="webfontlc5R39K8" horiz-adv-x="1400" >
<font-face units-per-em="2048" ascent="1638" descent="-410" />
<missing-glyph horiz-adv-x="700" />
<glyph unicode=" "  horiz-adv-x="700" />
<glyph unicode="&#x09;" horiz-adv-x="700" />
<glyph unicode="&#xa0;" horiz-adv-x="700" />
<glyph unicode="!" horiz-adv-x="500" d="M400 2200l-100 -1700h-100l-100 1600zM356 256q44 -44 44 -106t-44 -106t-106 -44t-106 44t-44 106t44 106t106 44t106 -44z" />
<glyph unicode="&#x22;" horiz-adv-x="900" d="M100 2150q0 62 44 106t106 44t106 -44q41 -41 44 -98v-12q0 -246 -200 -446q0 200 -50 294t-50 156zM500 2150q0 62 44 106t106 44t106 -44q41 -41 44 -98v-12q0 -246 -200 -446q0 200 -50 294t-50 156z" />
<glyph unicode="#" horiz-adv-x="1600" d="M380 800l40 400h-320v200h340l60 600h200l-60 -600h400l60 600h200l-60 -600h260v-200h-280l-40 -400h320v-200h-340l-60 -600h-200l60 600h-400l-60 -600h-200l60 600h-260v200h280zM620 1200l-40 -400h400l40 400h-400z" />
<glyph unicode="$" horiz-adv-x="1300" d="M807 1083q122 -34 232 -144q161 -161 161 -389t-161 -389q-137 -137 -322 -157l-17 -204h-200l17 199q-182 16 -302 136q-75 75 -115 165l172 111q25 -74 85 -134q68 -69 176 -80l59 706q-193 20 -331 158q-161 161 -161 389t161 389t389 161q17 0 33 -1l17 201h200 l-21 -256q111 -59 206 -179q75 -75 115 -165l-172 -111q-24 74 -84 135q-40 56 -84 94zM667 1800h-17q-145 0 -247.5 -102.5t-102.5 -247.5t103 -247q78 -79 206 -98zM734 209q92 22 164 94q102 102 102 247t-102 248q-50 49 -109 74z" />
<glyph unicode="%" d="M1000 400q-41 0 -70.5 -29.5t-29.5 -70.5t29.5 -70.5t70.5 -29.5t70.5 29.5t29.5 70.5t-29.5 70.5t-70.5 29.5zM1300 300q0 -124 -88 -212t-212 -88t-212 88t-88 212t88 212t212 88t212 -88t88 -212zM667 1838q33 -62 33 -138q0 -124 -88 -212t-212 -88t-212 88t-88 212 t88 212t212 88l700 100h200l-1000 -2200h-200l903 1986zM400 1800q-41 0 -70.5 -29.5t-29.5 -70.5t29.5 -70.5t70.5 -29.5t70.5 29.5t29.5 70.5t-29.5 70.5t-70.5 29.5z" />
<glyph unicode="&#x26;" horiz-adv-x="1600" d="M100 1600q0 166 175.5 283t424.5 117t424.5 -117t175.5 -283h-200q0 83 -117 141.5t-283 58.5t-283 -58.5t-117 -141.5v-200q0 -83 117 -141.5t283 -58.5v-200q-166 0 -283 -58.5t-117 -141.5v-400q0 -83 117 -141.5t283 -58.5t283 58.5t117 141.5v200q0 83 -67 141.5 t-233 58.5v200q350 0 700 200v-200q-153 -87 -306 -137q106 -111 106 -263v-200q0 -166 -175.5 -283t-424.5 -117t-424.5 117t-175.5 283v400q0 166 176 283q13 9 26 17q-13 8 -26 17q-176 117 -176 283v200z" />
<glyph unicode="'" horiz-adv-x="500" d="M100 2150q0 62 44 106t106 44t106 -44q41 -41 44 -98v-12q0 -246 -200 -446q0 200 -50 294t-50 156z" />
<glyph unicode="(" horiz-adv-x="700" d="M600 2100q-300 -400 -300 -1100t300 -1100h-200q-300 400 -300 1100t300 1100h200z" />
<glyph unicode=")" horiz-adv-x="700" d="M300 2100q300 -400 300 -1100t-300 -1100h-200q300 400 300 1100t-300 1100h200z" />
<glyph unicode="*" horiz-adv-x="1000" d="M700 2000q0 41 29.5 70.5t70.5 29.5t70.5 -29.5t29.5 -70.5t-29.5 -70.5t-70.5 -29.5t-200 -100q159 -100 200 -100t70.5 -29.5t29.5 -70.5t-29.5 -70.5t-70.5 -29.5t-70.5 29.5t-29.5 70.5l-100 100v-300h-200v300l-100 -100q0 -41 -29.5 -70.5t-70.5 -29.5t-70.5 29.5 t-29.5 70.5t29.5 70.5t70.5 29.5t200 100q-159 100 -200 100t-70.5 29.5t-29.5 70.5t29.5 70.5t70.5 29.5t70.5 -29.5t29.5 -70.5l100 -100v300h200v-300z" />
<glyph unicode="+" horiz-adv-x="1200" d="M500 1100v400h200v-400h400v-200h-400v-400h-200v400h-400v200h400z" />
<glyph unicode="," horiz-adv-x="600" d="M211 5q-37 9 -67 39q-44 44 -44 106t44 106t106 44t106 -44q41 -41 44 -98v-12q-4 -446 -300 -446q112 112 112 282q0 11 -1 23z" />
<glyph unicode="-" horiz-adv-x="1000" d="M900 1200v-200h-800v200h800z" />
<glyph unicode="." horiz-adv-x="600" d="M144 44q-44 44 -44 106t44 106t106 44t106 -44t44 -106t-44 -106t-106 -44t-106 44z" />
<glyph unicode="/" horiz-adv-x="1200" d="M1100 2000l-800 -2000h-200l800 2000h200z" />
<glyph unicode="0" d="M1124.5 1707.5q175.5 -292.5 175.5 -706.5t-175.5 -706.5t-424.5 -292.5t-424.5 292.5t-175.5 706.5t175.5 706.5t424.5 292.5t424.5 -292.5zM700 1800q-166 0 -283 -234.5t-117 -565.5t117 -565.5t283 -234.5t283 234.5t117 565.5t-117 565.5t-283 234.5z" />
<glyph unicode="1" horiz-adv-x="700" d="M600 0h-200v1720l-300 -120v200l500 200v-2000z" />
<glyph unicode="2" d="M800 998v2q299 411 299 586q0 37 -13 64q-79 150 -286 150t-553 -234q-8 -12 -14 -23l-132 158l4 6q405 293 695 293t455 -196q47 -55 47 -143q0 -224 -302 -661v-2l-560 -798h860v-200h-1200z" />
<glyph unicode="3" d="M600 1200q224 0 312 88t88 212t-88 212t-212 88t-212 -88q-87 -87 -88 -312h-200q1 308 147 454t353 146t353.5 -146.5t146.5 -353.5t-146 -353q-20 -20 -43 -37q64 -36 114 -85q175 -176 175 -425t-175.5 -424.5t-424.5 -175.5t-424 176q-175 174 -176 524h200 q1 -267 117 -383q117 -117 283 -117t283 117t117 283t-117 283t-383 117v200z" />
<glyph unicode="4" d="M900 800h-800l800 1200h200v-1000h200v-200h-200v-800h-200v800zM433 1000h467v700z" />
<glyph unicode="5" d="M348 1144q206 56 352 56q249 0 424.5 -175.5t175.5 -424.5t-175.5 -424.5t-424.5 -175.5t-424.5 75.5t-175.5 422.5v2h200v-2q0 -256 117 -277t283 -21t283 117t117 283t-117 283t-283 117q-200 0 -600 -100l200 1100h1000v-200h-836z" />
<glyph unicode="6" d="M458 1343q111 57 242 57q249 0 424.5 -205t175.5 -495t-175.5 -495t-424.5 -205t-424.5 205t-175.5 495q0 800 800 1300h300q-523 -260 -742 -657zM700 1200q-166 0 -283 -146.5t-117 -353.5t117 -353.5t283 -146.5t283 146.5t117 353.5t-117 353.5t-283 146.5z" />
<glyph unicode="7" d="M1300 2000q-700 -1000 -700 -2000h-200q0 900 567 1800h-667v-100h-200v300h1200z" />
<glyph unicode="8" d="M700 1800q-100 0 -200 -100t-100 -200q0 -124 100 -212t200 -88t200 88t100 212q0 100 -100 200t-200 100zM700 1000q-142 0 -271 -117t-129 -283q0 -117 117 -258.5t283 -141.5t283 141.5t117 258.5q0 166 -129 283t-271 117zM389 1112q-20 16 -39 35q-150 146 -150 353 q0 183 158.5 341.5t341.5 158.5t341.5 -158.5t158.5 -341.5q0 -207 -150 -353q-19 -19 -39 -35q58 -36 110 -87q179 -176 179 -425q0 -200 -175.5 -400t-424.5 -200t-424.5 200t-175.5 400q0 249 179 425q52 51 110 87z" />
<glyph unicode="9" d="M942 657q-111 -57 -242 -57q-249 0 -424.5 205t-175.5 495t175.5 495t424.5 205t424.5 -205t175.5 -495q0 -800 -800 -1300h-300q523 260 742 657zM700 800q166 0 283 146.5t117 353.5t-117 353.5t-283 146.5t-283 -146.5t-117 -353.5t117 -353.5t283 -146.5z" />
<glyph unicode=":" horiz-adv-x="600" d="M144 44q-44 44 -44 106t44 106t106 44t106 -44t44 -106t-44 -106t-106 -44t-106 44zM144 944q-44 44 -44 106t44 106t106 44t106 -44t44 -106t-44 -106t-106 -44t-106 44z" />
<glyph unicode=";" horiz-adv-x="600" d="M100 1050q0 62 44 106t106 44t106 -44t44 -106t-44 -106t-106 -44t-106 44t-44 106zM211 5q-37 9 -67 39q-44 44 -44 106t44 106t106 44t106 -44q41 -41 44 -98v-12q-4 -446 -300 -446q112 112 112 282q0 11 -1 23z" />
<glyph unicode="&#x37e;" horiz-adv-x="600" d="M100 1050q0 62 44 106t106 44t106 -44t44 -106t-44 -106t-106 -44t-106 44t-44 106zM211 5q-37 9 -67 39q-44 44 -44 106t44 106t106 44t106 -44q41 -41 44 -98v-12q-4 -446 -300 -446q112 112 112 282q0 11 -1 23z" />
<glyph unicode="&#x3c;" d="M1300 700v-200l-1200 400v200l1200 400v-200l-900 -300z" />
<glyph unicode="=" horiz-adv-x="1200" d="M1100 1300v-200h-1000v200h1000zM1100 900v-200h-1000v200h1000z" />
<glyph unicode="&#x3e;" d="M1000 1000l-900 300v200l1200 -400v-200l-1200 -400v200z" />
<glyph unicode="?" d="M850 150q0 -62 -44 -106t-106 -44t-106 44t-44 106t44 106t106 44t106 -44t44 -106zM1100 1800q0 83 -117 141.5t-283 58.5t-283 -58.5t-117 -141.5h-200q0 166 175.5 283t424.5 117t424.5 -117t175.5 -283v-500q0 -166 -175 -283q-140 -93 -325 -112v-405h-200v600h100 q166 0 283 58.5t117 141.5v500z" />
<glyph unicode="@" horiz-adv-x="2200" d="M1500 873q-582 -83 -683 -133q-116 -58 -117 -240q1 -184 117 -242q117 -58 283 -58t283 58q116 58 117 140v475zM1500 0v101q-168 -101 -400 -101q-249 0 -424 117q-175 116 -176 383q1 265 176 381q153 103 824 193v126q-1 82 -117 140q-117 58 -283 58t-283 -58 q-116 -58 -117 -140h-200q1 165 176 281q175 117 424 117t425 -117q174 -116 175 -281v-1200q100 0 120 93q80 293 80 707t-234.5 707t-565.5 293t-565.5 -293t-234.5 -707t234.5 -707t565.5 -293v-200q-414 0 -707 351.5t-293 848.5t293 848.5t707 351.5t707 -351.5 t293 -848.5q0 -463 -50 -631.5t-123 -268.5t-177 -100t-177 58.5t-73 141.5z" />
<glyph unicode="A" horiz-adv-x="1600" d="M800 1667l-200 -667h400zM540 800l-240 -800h-200l600 2000h200l600 -2000h-200l-240 800h-520z" />
<glyph unicode="B" d="M300 1000v-756q200 -44 400 -44q166 0 283 117t117 283t-117 283t-583 117v1q-29 -1 -100 -1zM300 1200q509 5 600 53q100 52 100 197t-102.5 247.5t-247.5 102.5h-350v-600zM100 2001l550 -1q228 0 389 -161t161 -389t-158 -339q-10 -7 -22 -13q63 -32 105 -73 q175 -176 175 -425t-175.5 -424.5t-424.5 -175.5q-200 0 -400 43v-43h-200v2001z" />
<glyph unicode="C" horiz-adv-x="1600" d="M1441 306q-251 -306 -541 -306q-390 0 -595 293t-205 707t205 707t595 293q290 0 528 -282q40 -57 72 -118l-173 -95q-19 37 -40 72q-180 223 -387 223q-307 0 -453.5 -234.5t-146.5 -565.5t146.5 -565.5t453.5 -234.5q207 0 400 248l18 30l182 -78q-27 -48 -59 -94z" />
<glyph unicode="D" horiz-adv-x="1600" d="M300 2000q500 0 850 -293t350 -707t-234.5 -707t-965.5 -293h-200v2000h200zM300 200q649 0 824.5 234.5t175.5 565.5t-291 565.5t-709 234.5v-1600z" />
<glyph unicode="E" d="M1300 2000v-200h-1000v-600h600v-200h-600v-800h1000v-200h-1200v2000h1200z" />
<glyph unicode="F" horiz-adv-x="1600" d="M1500 2000v-200h-1200v-600h800v-200h-800v-1000h-200v2000h1400z" />
<glyph unicode="G" horiz-adv-x="1600" d="M1500 400q-27 -48 -59 -94q-251 -306 -541 -306q-390 0 -595 293t-205 707t205 707t595 293q290 0 528 -282q40 -57 72 -118l-173 -95q-19 37 -40 72q-180 223 -387 223q-307 0 -453.5 -234.5t-146.5 -565.5t146.5 -565.5t453.5 -234.5q207 0 400 248v352h-400v200h600 v-600z" />
<glyph unicode="H" d="M300 1000v-1000h-200v2000h200v-800h800v800h200v-2000h-200v1000h-800z" />
<glyph unicode="I" horiz-adv-x="400" d="M300 2000v-2000h-200v2000h200z" />
<glyph unicode="J" horiz-adv-x="1000" d="M900 400q0 -166 -117 -283t-283 -117t-283 117t-117 283v2h200v-2q0 -83 58.5 -141.5t141.5 -58.5t141.5 58.5t58.5 141.5v1600h200v-1600z" />
<glyph unicode="K" horiz-adv-x="1600" d="M100 2000h200v-1333l400 533l600 800h200l-600 -800l600 -1200h-200l-520 1040l-480 -640v-400h-200v2000z" />
<glyph unicode="L" d="M100 0v2000h200v-1800h1000v-200h-1200z" />
<glyph unicode="M" horiz-adv-x="2000" d="M1500 2000l400 -2000h-200l-300 1500l-300 -1500h-200l-300 1500l-300 -1500h-200l400 2000h200l300 -1500l300 1500h200z" />
<glyph unicode="N" horiz-adv-x="1600" d="M300 1667v-1667h-200v2000h200l1000 -1667v1667h200v-2000h-200z" />
<glyph unicode="O" horiz-adv-x="1800" d="M1465.5 1707q234.5 -293 234.5 -707t-234.5 -707t-565.5 -293t-565.5 293t-234.5 707t234.5 707t565.5 293t565.5 -293zM900 1800q-249 0 -424.5 -234.5t-175.5 -565.5t175.5 -565.5t424.5 -234.5t424.5 234.5t175.5 565.5t-175.5 565.5t-424.5 234.5z" />
<glyph unicode="P" d="M300 1800v-1000h300q207 0 353.5 146.5t146.5 353.5t-146.5 353.5t-353.5 146.5h-300zM300 600v-600h-200v2000h500q290 0 495 -205t205 -495t-205 -495t-495 -205h-300z" />
<glyph unicode="Q" horiz-adv-x="1800" d="M1360 486q140 218 140 514q0 331 -175.5 565.5t-424.5 234.5t-424.5 -234.5t-175.5 -565.5t175.5 -565.5t424.5 -234.5q201 0 353 152l-453 648h200zM1368 188q-203 -188 -468 -188q-331 0 -565.5 293t-234.5 707t234.5 707t565.5 293t565.5 -293t234.5 -707 q0 -400 -219 -687l219 -313h-200z" />
<glyph unicode="R" horiz-adv-x="1600" d="M772 600h-472v-600h-200v2000h700q290 0 495 -205t205 -495t-205 -495q-113 -113 -252 -164q457 -263 457 -641h-200q-70 349 -528 600zM800 800q207 0 353.5 146.5t146.5 353.5t-146.5 353.5t-353.5 146.5h-500v-1000h500z" />
<glyph unicode="S" horiz-adv-x="1300" d="M1039 939q161 -161 161 -389t-161 -389t-389 -161q-38 -4 -74 -4q-222 0 -361 139q-75 75 -115 165l172 111q25 -74 85 -134q81 -82 220 -82q35 0 73 5q145 0 247.5 102.5t102.5 247.5t-102.5 247.5t-247.5 102.5h2q-232 2 -391 161q-161 161 -161 389t161 389t389 161 q250 0 435 -235q75 -75 115 -165l-172 -111q-24 74 -84 135q-127 176 -294 176q-145 0 -247.5 -102.5t-102.5 -247.5t102.5 -247.5t289.5 -103t347 -160.5z" />
<glyph unicode="T" d="M1300 2000v-200h-500v-1800h-200v1800h-500v200h1200z" />
<glyph unicode="U" horiz-adv-x="1600" d="M1300 800v1200h200v-1200q-1 -391 -205 -595q-205 -205 -495 -205t-495 205q-204 204 -205 595v1200h200v-1200q1 -308 147 -453q146 -147 353 -147t354 147q145 145 146 453z" />
<glyph unicode="V" horiz-adv-x="1600" d="M700 0l-600 2000h200l500 -1667l500 1667h200l-600 -2000h-200z" />
<glyph unicode="W" horiz-adv-x="2400" d="M600 0l-500 2000h200l400 -1600l400 1600h200l400 -1600l400 1600h200l-500 -2000h-200l-400 1600l-400 -1600h-200z" />
<glyph unicode="X" horiz-adv-x="1600" d="M700 1000l-600 1000h200l500 -833l500 833h200l-600 -1000l600 -1000h-200l-500 833l-500 -833h-200z" />
<glyph unicode="Y" horiz-adv-x="1600" d="M809 1152l491 848h200q-900 -1400 -900 -2000h-200q50 500 325 1000h-25l-600 1000h200z" />
<glyph unicode="Z" horiz-adv-x="1600" d="M1180 1800h-1080v200h1400l-1080 -1800h1080v-200h-1400z" />
<glyph unicode="[" horiz-adv-x="800" d="M300 100h400v-200h-600v2200h600v-200h-400v-1800z" />
<glyph unicode="\" horiz-adv-x="1200" d="M300 2000l800 -2000h-200l-800 2000h200z" />
<glyph unicode="]" horiz-adv-x="800" d="M500 1900h-400v200h600v-2200h-600v200h400v1800z" />
<glyph unicode="^" d="M800 2200l300 -400h-200l-200 267l-200 -267h-200l300 400h200z" />
<glyph unicode="_" horiz-adv-x="1600" d="M1600 100v-200h-1600v200h1600z" />
<glyph unicode="`" d="M600 1800l-300 400h200l300 -400h-200z" />
<glyph unicode="a" d="M1100 873q-582 -83 -683 -133q-116 -58 -117 -240q1 -184 117 -242q117 -58 283 -58t283 58q116 58 117 140v475zM1100 1200q-1 82 -117 140q-117 58 -283 58t-283 -58q-116 -58 -117 -140h-200q1 165 176 281q175 117 424 117t425 -117q174 -116 175 -281v-1200h-200 v101q-168 -101 -400 -101q-249 0 -424 117q-175 116 -176 383q1 265 176 381q153 103 824 193v126z" />
<glyph unicode="b" d="M300 1498q168 102 400 102q249 0 425 -117q174 -116 175 -483v-400q-1 -365 -175 -481q-176 -117 -425 -117q-232 0 -400 102v-104h-200v2200h200v-702zM1100 1000q-1 284 -117 342q-117 58 -283 58t-283 -58q-116 -58 -117 -140v-802q1 -82 117 -140q117 -58 283 -58 t283 58q116 58 117 340v400z" />
<glyph unicode="c" d="M300 600q1 -284 117 -341q117 -59 283 -59t283 59q116 57 117 139h200q-1 -165 -175 -281q-176 -117 -425 -117t-424 117q-175 116 -176 483v400q0 368 175.5 485t424.5 117t424.5 -117t175.5 -283v-2h-200v2q0 83 -117 141.5t-283 58.5t-283 -58.5t-117 -343.5v-400z " />
<glyph unicode="d" d="M1100 2200h200v-2200h-200v104q-168 -102 -400 -102q-249 0 -425 117q-174 116 -175 481v400q1 367 175 483q176 117 425 117q232 0 400 -102v702zM300 600q1 -282 117 -340q117 -58 283 -58t283 58q116 58 117 140v802q-1 82 -117 140q-117 58 -283 58t-283 -58 q-116 -58 -117 -342v-400z" />
<glyph unicode="e" d="M1100 1000q0 285 -117 343.5t-283 58.5t-283 -58.5t-117 -343.5v-100h800v100zM300 700v-100q1 -284 117 -341q117 -59 283 -59t283 59q116 57 117 141h200q-1 -167 -175 -283q-176 -117 -425 -117t-424 117q-175 116 -176 483v400q0 368 175.5 485t424.5 117t424.5 -117 t175.5 -485v-300h-1000z" />
<glyph unicode="f" horiz-adv-x="1000" d="M475.5 2085q175.5 117 424.5 117v-200q-166 0 -283 -58.5t-117 -343.5h400v-200h-400v-1400h-200v1400h-200v200h200q0 368 175.5 485z" />
<glyph unicode="g" d="M1100 101q-168 -101 -400 -101q-249 0 -424 117q-175 116 -176 483v400q0 368 175.5 485t424.5 117q232 0 400 -101v99h200v-1800q0 -166 -175.5 -283t-424.5 -117t-424.5 117t-175.5 283v2h200v-2q0 -83 117 -141.5t283 -58.5t283 58.5t117 141.5v301zM1100 1203 q0 82 -117 141q-117 58 -283 58t-283 -58.5t-117 -343.5v-400q1 -284 117 -341q117 -59 283 -59t283 59q116 57 117 139v805z" />
<glyph unicode="h" d="M1300 0h-200v1202q0 83 -117 141.5t-283 58.5t-283 -58.5t-117 -343.5v-1000h-200v2200h200v-699q168 101 400 101q249 0 424.5 -117t175.5 -283v-1202z" />
<glyph unicode="i" horiz-adv-x="600" d="M500 1600v-1600h-200v1400h-200v200h400zM244 1844q-44 44 -44 106t44 106t106 44t106 -44t44 -106t-44 -106t-106 -44t-106 44z" />
<glyph unicode="j" horiz-adv-x="600" d="M500 1600v-1802q0 -166 -175.5 -283t-424.5 -117v200q166 0 283 58.5t117 141.5v1602h-200v200h400zM244 1844q-44 44 -44 106t44 106t106 44t106 -44t44 -106t-44 -106t-106 -44t-106 44z" />
<glyph unicode="k" horiz-adv-x="1200" d="M100 2200h200v-1575l104 169l-4 6h8l492 800h200l-496 -806l496 -794h-200l-395 633l-205 -333v-300h-200v2200z" />
<glyph unicode="l" horiz-adv-x="500" d="M300 300q1 -42 30 -70q29 -30 70 -30v-200q-124 0 -212 88q-87 87 -88 212v1900h200v-1900z" />
<glyph unicode="m" horiz-adv-x="2000" d="M100 1600h200v-80q129 80 300 80q207 0 354 -117q27 -22 49 -45q20 26 44 45q146 117 353 117t354 -117q145 -116 146 -281h-200q-1 82 -88 140q-88 58 -212 58t-212 -58q-87 -58 -88 -342v-1000h-200v1200h14v2h-14q-1 82 -88 140q-88 58 -212 58t-212 -58 q-87 -58 -88 -342v-1000h-200v1600zM1900 1200v-1200h-200v1200h200z" />
<glyph unicode="n" d="M100 1600h200v-99q168 101 400 101q249 0 424.5 -117t175.5 -283v-1202h-200v1202q0 83 -117 141.5t-283 58.5t-283 -58.5t-117 -343.5v-1000h-200v1600z" />
<glyph unicode="o" d="M100 1000q0 368 175.5 485t424.5 117t424.5 -117t175.5 -283v-602q0 -366 -175.5 -483t-424.5 -117t-424.5 117t-175.5 283v600zM1100 1202q0 83 -117 141.5t-283 58.5t-283 -58.5t-117 -343.5v-600q0 -83 117 -141.5t283 -58.5t283 58.5t117 341.5v602z" />
<glyph unicode="p" d="M300 -600h-200v2200h200v-104q168 102 400 102q249 0 425 -117q174 -116 175 -481v-400q-1 -367 -175 -483q-176 -117 -425 -117q-232 0 -400 102v-702zM1100 1000q-1 282 -117 340q-117 58 -283 58t-283 -58q-116 -58 -117 -140v-802q1 -82 117 -140q117 -58 283 -58 t283 58q116 58 117 342v400z" />
<glyph unicode="q" d="M1100 102q-168 -102 -400 -102q-249 0 -425 117q-174 116 -175 483v400q1 365 175 481q176 117 425 117q232 0 400 -102v104h200v-2200h-200v702zM300 600q1 -284 117 -342q117 -58 283 -58t283 58q116 58 117 140v802q-1 82 -117 140q-117 58 -283 58t-283 -58 q-116 -58 -117 -340v-400z" />
<glyph unicode="r" horiz-adv-x="800" d="M300 1000v-1000h-200v1600h200v-101q168 101 400 101v-200q-166 0 -283 -58.5t-117 -341.5z" />
<glyph unicode="s" d="M100 1100q1 267 176 383q175 117 424 117t425 -117q174 -116 175 -281h-200q-1 82 -117 140q-117 58 -283 58t-283 -58q-116 -58 -117 -242q1 -84 117 -142q117 -58 283 -58v-2q249 0 425 -117q174 -116 175 -381q-1 -167 -175 -283q-176 -117 -425 -117t-424 117 q-175 116 -176 283h200q1 -84 117 -142q117 -58 283 -58t283 58q116 58 117 142q-1 182 -117 240q-117 58 -283 58v2q-249 0 -424 117q-175 116 -176 283z" />
<glyph unicode="t" horiz-adv-x="1000" d="M300 1400h-200v200h200v602h200v-602h400v-200h-400v-799q0 -284 117 -342.5t283 -58.5v-200q-249 0 -424.5 117t-175.5 483v800z" />
<glyph unicode="u" d="M1300 2h-200v99q-168 -101 -400 -101q-249 0 -424.5 117t-175.5 283v1202h200v-1202q0 -83 117 -141.5t283 -58.5t283 58.5t117 343.5v1000h200v-1600z" />
<glyph unicode="v" d="M600 0l-500 1600h200l400 -1280l400 1280h200l-500 -1600h-200z" />
<glyph unicode="w" horiz-adv-x="2400" d="M1200 1280l-400 -1280h-200l-500 1600h200l400 -1280l400 1280h200l400 -1280l400 1280h200l-500 -1600h-200z" />
<glyph unicode="x" d="M600 800l-500 800h200l400 -640l400 640h200l-500 -800l500 -800h-200l-400 640l-400 -640h-200z" />
<glyph unicode="y" horiz-adv-x="1600" d="M797 7l-697 1593h200l581 -1328l419 1328h200l-503 -1593l3 -7h-5q-95 -400 -212 -512q-117 -88 -283 -88t-283 88q-116 87 -117 210h200q1 -40 59 -68q58 -30 141 -30t142 30q57 28 58 70z" />
<glyph unicode="z" d="M975 1400h-875v200h1200l-875 -1400h875v-200h-1200z" />
<glyph unicode="{" horiz-adv-x="1000" d="M500 300q0 -83 117 -141.5t283 -58.5v-200q-249 0 -424.5 117t-175.5 283v600h-200v200h200v600q0 166 175.5 283t424.5 117v-200q-166 0 -283 -58.5t-117 -141.5v-1400z" />
<glyph unicode="|" horiz-adv-x="800" d="M300 2000h200v-2200h-200v2200z" />
<glyph unicode="}" horiz-adv-x="1000" d="M500 1700q0 83 -117 141.5t-283 58.5v200q249 0 424.5 -117t175.5 -283v-600h200v-200h-200v-600q0 -166 -175.5 -283t-424.5 -117v200q166 0 283 58.5t117 141.5v1400z" />
<glyph unicode="~" horiz-adv-x="1000" d="M900 2000v-200q-100 -100 -200 -100t-200 100t-200 100t-200 -100v200q100 100 200 100t200 -100t200 -100t200 100z" />
<glyph unicode="&#xa1;" horiz-adv-x="500" d="M100 -200l100 1700h100l100 -1600zM144 1744q-44 44 -44 106t44 106t106 44t106 -44t44 -106t-44 -106t-106 -44t-106 44z" />
<glyph unicode="&#xa2;" horiz-adv-x="1600" d="M900 200q207 0 400 248l18 30l182 -78q-27 -48 -59 -94q-251 -306 -541 -306v-200h-200v222q-246 58 -395 271q-205 293 -205 707t205 707q149 213 395 271v222h200v-200q290 0 528 -282q40 -57 72 -118l-173 -95q-19 37 -40 72q-180 223 -387 223v-1600zM700 1770 q-160 -54 -253 -204q-147 -235 -147 -566t147 -565q93 -151 253 -205v1540z" />
<glyph unicode="&#xa3;" horiz-adv-x="1600" d="M100 0v200h200v800h-200v200h200v400q0 300 200 400h300q-300 -100 -300 -400v-400h400v-200h-400v-800h700q200 0 300 200v-300q-100 -100 -300 -100h-1100z" />
<glyph unicode="&#xa4;" horiz-adv-x="1800" d="M1300 1200q0 83 -117 141.5t-283 58.5t-283 -58.5t-117 -141.5v-400q0 -83 117 -141.5t283 -58.5t283 58.5t117 141.5v400zM300 1200q0 166 175.5 283t424.5 117t424.5 -117t175.5 -283v-400q0 -166 -175.5 -283t-424.5 -117t-424.5 117t-175.5 283v400zM356 1656 q44 -44 44 -106t-44 -106t-106 -44t-106 44t-44 106t44 106t106 44t106 -44zM356 556q44 -44 44 -106t-44 -106t-106 -44t-106 44t-44 106t44 106t106 44t106 -44zM1656 1656q44 -44 44 -106t-44 -106t-106 -44t-106 44t-44 106t44 106t106 44t106 -44zM1656 556 q44 -44 44 -106t-44 -106t-106 -44t-106 44t-44 106t44 106t106 44t106 -44z" />
<glyph unicode="&#xa5;" horiz-adv-x="1600" d="M672 900q25 50 53 100h-25l-600 1000h200l509 -848l491 848h200q-406 -631 -629 -1100h229v-200h-319q-44 -105 -77 -200h396v-200h-457q-43 -169 -43 -300h-200q15 150 50 300h-150v200h206q33 100 74 200h-280v200h372z" />
<glyph unicode="&#xa6;" horiz-adv-x="800" d="M300 2200h200v-1000h-200v1000zM300 800h200v-1000h-200v1000z" />
<glyph unicode="&#xa7;" d="M1100 798v2q0 83 -117 141.5t-283 58.5t-283 -58.5t-117 -141.5v-2q1 -82 117 -139q117 -59 283 -59t283 59q116 57 117 139zM302 1102q-13 8 -26 17q-176 117 -176 283v2q0 166 175.5 283t424.5 117t424.5 -117t175.5 -283v-2h-200v2q0 83 -117 141.5t-283 58.5 t-283 -58.5t-117 -141.5v-2q0 -83 117 -141.5t283 -58.5q249 0 424.5 -117t175.5 -283v-2q-1 -165 -175 -281l-29 -18l29 -18q175 -117 175 -283v-2q-1 -165 -175 -281q-176 -117 -425 -117t-424 117q-175 116 -176 283h200q1 -84 117 -141q117 -59 283 -59t283 59 q116 57 117 139v2q0 83 -117 141.5t-283 58.5q-249 0 -424.5 117t-175.5 283v2q0 166 176 283q13 9 26 17z" />
<glyph unicode="&#xa8;" d="M344 1844q-44 44 -44 106t44 106t106 44t106 -44t44 -106t-44 -106t-106 -44t-106 44zM844 1844q-44 44 -44 106t44 106t106 44t106 -44t44 -106t-44 -106t-106 -44t-106 44z" />
<glyph unicode="&#xa9;" horiz-adv-x="2200" d="M700 800q1 -284 117 -341q117 -59 283 -59t283 59q116 57 117 139h200q-1 -165 -175 -281q-176 -117 -425 -117t-424 117q-175 116 -176 483v400q0 368 175.5 485t424.5 117t424.5 -117t175.5 -283v-2h-200v2q0 83 -117 141.5t-283 58.5t-283 -58.5t-117 -343.5v-400z M100 1802q0 166 293 283t707 117t707 -117t293 -283v-1602q0 -166 -293 -283t-707 -117t-707 117t-293 283v1602zM1900 1802q0 83 -234.5 141.5t-565.5 58.5t-565.5 -58.5t-234.5 -141.5v-1602q0 -83 234.5 -141.5t565.5 -58.5t565.5 58.5t234.5 141.5v1602z" />
<glyph unicode="&#xaa;" horiz-adv-x="1100" d="M700 1600q0 83 -17 141.5t-183 58.5t-183 -57.5t-17 -142.5q0 -83 17 -142.5t183 -59.5t183 58.5t17 143.5zM774 1263q-89 -65 -274 -65q-249 0 -324.5 118t-75.5 284q0 168 75.5 284t324.5 116q120 0 200 -27v27h200q0 -600 100 -800h-200q-14 28 -26 63z" />
<glyph unicode="&#xab;" horiz-adv-x="1800" d="M1700 700v-200l-800 400v200l800 400v-200l-600 -300zM900 700v-200l-800 400v200l800 400v-200l-600 -300z" />
<glyph unicode="&#xac;" horiz-adv-x="1200" d="M100 1400h1000v-400h-200v200h-800v200z" />
<glyph unicode="&#xad;" horiz-adv-x="1000" d="M900 1200v-200h-800v200h800z" />
<glyph unicode="&#xae;" horiz-adv-x="2200" d="M700 1600v-600h400v2q22 0 44 -1q138 7 239 58q117 58 117 141v200q0 83 -117 141.5t-283 58.5h-400zM700 800v-600h-200v1600h600q249 0 424.5 -117t175.5 -283v-200q0 -166 -175 -283l-26 -16l26 -16q175 -117 175 -283v-402h-200v402q0 83 -117 142q-101 50 -239 57 q-22 -1 -44 -1h-400zM1900 1802q0 83 -234.5 141.5t-565.5 58.5t-565.5 -58.5t-234.5 -141.5v-1602q0 -83 234.5 -141.5t565.5 -58.5t565.5 58.5t234.5 141.5v1602zM100 1802q0 166 293 283t707 117t707 -117t293 -283v-1602q0 -166 -293 -283t-707 -117t-707 117t-293 283 v1602z" />
<glyph unicode="&#xaf;" horiz-adv-x="1600" d="M1600 2100v-200h-1600v200h1600z" />
<glyph unicode="&#xb0;" horiz-adv-x="1000" d="M783 2083q117 -117 117 -283t-117 -283t-283 -117t-283 117t-117 283t117 283t283 117t283 -117zM500 2000q-83 0 -141.5 -58.5t-58.5 -141.5t58.5 -141.5t141.5 -58.5t141.5 58.5t58.5 141.5t-58.5 141.5t-141.5 58.5z" />
<glyph unicode="&#xb1;" horiz-adv-x="1200" d="M500 1300v400h200v-400h400v-200h-400v-400h-200v400h-400v200h400zM1100 500v-200h-1000v200h1000z" />
<glyph unicode="&#xb2;" horiz-adv-x="1000" d="M550 1400h350v-200h-800l500 400q113 79 113 126q0 13 -8 24q-39 50 -205 50t-200 -100l-200 100q151 200 400 200t357 -117q42 -46 42 -100q0 -83 -99 -183z" />
<glyph unicode="&#xb3;" horiz-adv-x="1000" d="M700 1700q-1 42 -58 71q-59 29 -142 29t-141 -29t-59 -69h-200q1 123 117 210q117 88 283 88t283 -88q116 -87 117 -212q0 -99 -100 -100q100 -1 100 -102q0 -124 -117 -212t-283 -88t-283 88t-117 212v2h200v-2q0 -41 58.5 -70.5t141.5 -29.5t141.5 29.5t58.5 70.5v2 h-200v200h200z" />
<glyph unicode="&#xb4;" d="M600 1800l300 400h200l-300 -400h-200z" />
<glyph unicode="&#xb5;" d="M300 399q1 -82 117 -140q117 -59 283 -59t283 58.5t117 343.5v1000h200v-1600h-200v99q-168 -101 -400 -101t-400 101v-701h-200v2202h200v-1203z" />
<glyph unicode="&#xb6;" horiz-adv-x="1600" d="M700 1200q-249 0 -424.5 117t-175.5 283t175.5 283t424.5 117h800v-200h-200v-1800h-200v1800h-200v-1800h-200v1200z" />
<glyph unicode="&#xb7;" horiz-adv-x="500" d="M144 944q-44 44 -44 106t44 106t106 44t106 -44t44 -106t-44 -106t-106 -44t-106 44z" />
<glyph unicode="&#x2219;" horiz-adv-x="500" d="M144 944q-44 44 -44 106t44 106t106 44t106 -44t44 -106t-44 -106t-106 -44t-106 44z" />
<glyph unicode="&#xb8;" d="M800 100h200v-200q0 -124 -88 -212t-212 -88t-212 88t-88 212v2h200v-2q0 -41 29.5 -70.5t70.5 -29.5t70.5 29.5t29.5 70.5v200z" />
<glyph unicode="&#xb9;" horiz-adv-x="600" d="M500 1200h-200v548l-200 -48v200l400 100v-800z" />
<glyph unicode="&#xba;" horiz-adv-x="1000" d="M175.5 1884q75.5 116 324.5 116t324.5 -117t75.5 -283q0 -168 -75.5 -285t-324.5 -117t-324.5 118t-75.5 284q0 168 75.5 284zM700 1600q0 83 -17 141.5t-183 58.5t-183 -57.5t-17 -142.5q0 -83 17 -142.5t183 -59.5t183 58.5t17 143.5z" />
<glyph unicode="&#xbb;" horiz-adv-x="1800" d="M700 1000l-600 300v200l800 -400v-200l-800 -400v200zM1500 1000l-600 300v200l800 -400v-200l-800 -400v200z" />
<glyph unicode="&#xbc;" horiz-adv-x="1800" d="M500 1200h-200v548l-200 -48v200l400 100v-800zM1700 2000l-1400 -2000h-200l1400 2000h200zM1300 400v100l-67 -100h67zM1500 800v-400h200v-200h-200v-200h-200v200h-400l400 600h200z" />
<glyph unicode="&#xbd;" horiz-adv-x="1800" d="M500 1200h-200v548l-200 -48v200l400 100v-800zM1350 200h350v-200h-800l500 400q113 79 113 126q0 13 -8 24q-39 50 -205 50t-200 -100l-200 100q151 200 400 200t357 -117q42 -46 42 -100q0 -83 -99 -183zM1700 2000l-1400 -2000h-200l1400 2000h200z" />
<glyph unicode="&#xbe;" horiz-adv-x="1800" d="M700 1700q-1 42 -58 71q-59 29 -142 29t-141 -29t-59 -69h-200q1 123 117 210q117 88 283 88t283 -88q116 -87 117 -212q0 -99 -100 -100q100 -1 100 -102q0 -124 -117 -212t-283 -88t-283 88t-117 212v2h200v-2q0 -41 58.5 -70.5t141.5 -29.5t141.5 29.5t58.5 70.5v2 h-200v200h200zM1300 400v100l-67 -100h67zM1500 800v-400h200v-200h-200v-200h-200v200h-400l400 600h200zM1700 2000l-1400 -2000h-200l1400 2000h200z" />
<glyph unicode="&#xbf;" d="M550 1850q0 62 44 106t106 44t106 -44t44 -106t-44 -106t-106 -44t-106 44t-44 106zM300 200q0 -83 117 -141.5t283 -58.5t283 58.5t117 141.5h200q0 -166 -175.5 -283t-424.5 -117t-424.5 117t-175.5 283v500q0 166 176 283q139 93 324 112v405h200v-600h-100 q-166 0 -283 -58.5t-117 -141.5v-500z" />
<glyph unicode="&#xc0;" horiz-adv-x="1600" d="M800 1667l-200 -667h400zM540 800l-240 -800h-200l600 2000h200l600 -2000h-200l-240 800h-520zM736 2200l-300 400h200l300 -400h-200z" />
<glyph unicode="&#xc1;" horiz-adv-x="1600" d="M800 1667l-200 -667h400zM540 800l-240 -800h-200l600 2000h200l600 -2000h-200l-240 800h-520zM700 2200l300 400h200l-300 -400h-200z" />
<glyph unicode="&#xc2;" horiz-adv-x="1600" d="M800 1667l-200 -667h400zM540 800l-240 -800h-200l600 2000h200l600 -2000h-200l-240 800h-520zM900 2600l300 -400h-200l-200 267l-200 -267h-200l300 400h200z" />
<glyph unicode="&#xc3;" horiz-adv-x="1600" d="M800 1667l-200 -667h400zM540 800l-240 -800h-200l600 2000h200l600 -2000h-200l-240 800h-520zM1200 2500v-200q-100 -100 -200 -100t-200 100t-200 100t-200 -100v200q100 100 200 100t200 -100t200 -100t200 100z" />
<glyph unicode="&#xc4;" horiz-adv-x="1600" d="M800 1667l-200 -667h400zM540 800l-240 -800h-200l600 2000h200l600 -2000h-200l-240 800h-520zM444 2244q-44 44 -44 106t44 106t106 44t106 -44t44 -106t-44 -106t-106 -44t-106 44zM944 2244q-44 44 -44 106t44 106t106 44t106 -44t44 -106t-44 -106t-106 -44t-106 44 z" />
<glyph unicode="&#xc5;" horiz-adv-x="1600" d="M800 1667l-200 -667h400zM540 800l-240 -800h-200l600 2000h200l600 -2000h-200l-240 800h-520zM588 2288q-88 88 -88 212t88 212t212 88t212 -88t88 -212t-88 -212t-212 -88t-212 88zM800 2600q-41 0 -70.5 -29.5t-29.5 -70.5t29.5 -70.5t70.5 -29.5t70.5 29.5 t29.5 70.5t-29.5 70.5t-70.5 29.5z" />
<glyph unicode="&#xc6;" horiz-adv-x="2118" d="M800 1667l-200 -667h400zM540 800l-240 -800h-200l600 2000h200l600 -2000h-200l-240 800h-520z" />
<glyph unicode="&#xc7;" horiz-adv-x="1600" d="M900 0q-390 0 -595 293t-205 707t205 707t595 293q290 0 528 -282q40 -57 72 -118l-173 -95q-19 37 -40 72q-180 223 -387 223q-307 0 -453.5 -234.5t-146.5 -565.5t146.5 -565.5t453.5 -234.5q207 0 400 248l18 30l182 -78q-27 -48 -59 -94q-162 -198 -341 -268v-138 q0 -124 -88 -212t-212 -88t-212 88t-88 212v2h200v-2q0 -41 29.5 -70.5t70.5 -29.5t70.5 29.5t29.5 70.5v100z" />
<glyph unicode="&#xc8;" d="M1300 2000v-200h-1000v-600h600v-200h-600v-800h1000v-200h-1200v2000h1200z" />
<glyph unicode="&#xc9;" d="M1300 2000v-200h-1000v-600h600v-200h-600v-800h1000v-200h-1200v2000h1200z" />
<glyph unicode="&#xca;" d="M1300 2000v-200h-1000v-600h600v-200h-600v-800h1000v-200h-1200v2000h1200z" />
<glyph unicode="&#xcb;" d="M1300 2000v-200h-1000v-600h600v-200h-600v-800h1000v-200h-1200v2000h1200z" />
<glyph unicode="&#xcc;" horiz-adv-x="400" d="M300 2000v-2000h-200v2000h200zM100 2200l-300 400h200l300 -400h-200z" />
<glyph unicode="&#xcd;" horiz-adv-x="400" d="M300 2000v-2000h-200v2000h200zM100 2200l300 400h200l-300 -400h-200z" />
<glyph unicode="&#xce;" horiz-adv-x="400" d="M300 2600l300 -400h-200l-200 267l-200 -267h-200l300 400h200zM300 2000v-2000h-200v2000h200z" />
<glyph unicode="&#xcf;" horiz-adv-x="400" d="M-156 2244q-44 44 -44 106t44 106t106 44t106 -44t44 -106t-44 -106t-106 -44t-106 44zM344 2244q-44 44 -44 106t44 106t106 44t106 -44t44 -106t-44 -106t-106 -44t-106 44zM300 2000v-2000h-200v2000h200z" />
<glyph unicode="&#xd0;" horiz-adv-x="1800" d="M500 900v-700q649 0 824.5 234.5t175.5 565.5t-291 565.5t-709 234.5v-700h400v-200h-400zM300 1100v900h200q500 0 850 -293t350 -707t-234.5 -707t-965.5 -293h-200v900h-200v200h200z" />
<glyph unicode="&#xd1;" horiz-adv-x="1600" d="M300 1667v-1667h-200v2000h200l1000 -1667v1667h200v-2000h-200zM1200 2400v-200q-100 -100 -200 -100t-200 100t-200 100t-200 -100v200q100 100 200 100t200 -100t200 -100t200 100z" />
<glyph unicode="&#xd2;" horiz-adv-x="1800" d="M900 2000q331 0 565.5 -293t234.5 -707t-234.5 -707t-565.5 -293t-565.5 293t-234.5 707t234.5 707t565.5 293zM300 1000q0 -331 175.5 -565.5t424.5 -234.5t424.5 234.5t175.5 565.5t-175.5 565.5t-424.5 234.5t-424.5 -234.5t-175.5 -565.5zM800 2200l-300 400h200 l300 -400h-200z" />
<glyph unicode="&#xd3;" horiz-adv-x="1800" d="M1465.5 1707q234.5 -293 234.5 -707t-234.5 -707t-565.5 -293t-565.5 293t-234.5 707t234.5 707t565.5 293t565.5 -293zM900 1800q-249 0 -424.5 -234.5t-175.5 -565.5t175.5 -565.5t424.5 -234.5t424.5 234.5t175.5 565.5t-175.5 565.5t-424.5 234.5zM800 2200l300 400 h200l-300 -400h-200z" />
<glyph unicode="&#xd4;" horiz-adv-x="1800" d="M1465.5 1707q234.5 -293 234.5 -707t-234.5 -707t-565.5 -293t-565.5 293t-234.5 707t234.5 707t565.5 293t565.5 -293zM900 1800q-249 0 -424.5 -234.5t-175.5 -565.5t175.5 -565.5t424.5 -234.5t424.5 234.5t175.5 565.5t-175.5 565.5t-424.5 234.5zM1000 2600 l300 -400h-200l-200 267l-200 -267h-200l300 400h200z" />
<glyph unicode="&#xd5;" horiz-adv-x="1800" d="M1465.5 1707q234.5 -293 234.5 -707t-234.5 -707t-565.5 -293t-565.5 293t-234.5 707t234.5 707t565.5 293t565.5 -293zM900 1800q-249 0 -424.5 -234.5t-175.5 -565.5t175.5 -565.5t424.5 -234.5t424.5 234.5t175.5 565.5t-175.5 565.5t-424.5 234.5zM1300 2400v-200 q-100 -100 -200 -100t-200 100t-200 100t-200 -100v200q100 100 200 100t200 -100t200 -100t200 100z" />
<glyph unicode="&#xd6;" horiz-adv-x="1800" d="M1465.5 1707q234.5 -293 234.5 -707t-234.5 -707t-565.5 -293t-565.5 293t-234.5 707t234.5 707t565.5 293t565.5 -293zM900 1800q-249 0 -424.5 -234.5t-175.5 -565.5t175.5 -565.5t424.5 -234.5t424.5 234.5t175.5 565.5t-175.5 565.5t-424.5 234.5zM544 2244 q-44 44 -44 106t44 106t106 44t106 -44t44 -106t-44 -106t-106 -44t-106 44zM1044 2244q-44 44 -44 106t44 106t106 44t106 -44t44 -106t-44 -106t-106 -44t-106 44z" />
<glyph unicode="&#xd7;" horiz-adv-x="1200" d="M500 1000l-400 500h200l300 -375l300 375h200l-400 -500l400 -500h-200l-300 375l-300 -375h-200z" />
<glyph unicode="&#xd8;" horiz-adv-x="1800" d="M1253 1648q-152 152 -353 152q-249 0 -424.5 -234.5t-175.5 -565.5q0 -296 140 -514zM1360 1514l-813 -1162q152 -152 353 -152q249 0 424.5 234.5t175.5 565.5q0 296 -140 514zM1368 1812l132 188h200l-219 -313q219 -287 219 -687q0 -414 -234.5 -707t-565.5 -293 q-265 0 -468 188l-132 -188h-200l219 313q-219 287 -219 687q0 414 234.5 707t565.5 293q265 0 468 -188z" />
<glyph unicode="&#xd9;" horiz-adv-x="1600" d="M446 347q147 -147 354 -147t353 147q146 145 147 453v1200h200v-1200q-1 -391 -205 -595q-205 -205 -495 -205t-495 205q-204 204 -205 595v1200h200v-1200q1 -308 146 -453zM700 2200l-300 400h200l300 -400h-200z" />
<glyph unicode="&#xda;" horiz-adv-x="1600" d="M1300 800v1200h200v-1200q-1 -391 -205 -595q-205 -205 -495 -205t-495 205q-204 204 -205 595v1200h200v-1200q1 -308 147 -453q146 -147 353 -147t354 147q145 145 146 453zM700 2200l300 400h200l-300 -400h-200z" />
<glyph unicode="&#xdb;" horiz-adv-x="1600" d="M1300 800v1200h200v-1200q-1 -391 -205 -595q-205 -205 -495 -205t-495 205q-204 204 -205 595v1200h200v-1200q1 -308 147 -453q146 -147 353 -147t354 147q145 145 146 453zM900 2600l300 -400h-200l-200 267l-200 -267h-200l300 400h200z" />
<glyph unicode="&#xdc;" horiz-adv-x="1600" d="M1300 800v1200h200v-1200q-1 -391 -205 -595q-205 -205 -495 -205t-495 205q-204 204 -205 595v1200h200v-1200q1 -308 147 -453q146 -147 353 -147t354 147q145 145 146 453zM444 2244q-44 44 -44 106t44 106t106 44t106 -44t44 -106t-44 -106t-106 -44t-106 44z M944 2244q-44 44 -44 106t44 106t106 44t106 -44t44 -106t-44 -106t-106 -44t-106 44z" />
<glyph unicode="&#xdd;" horiz-adv-x="1600" d="M809 1152l491 848h200q-900 -1400 -900 -2000h-200q50 500 325 1000h-25l-600 1000h200zM700 2200l300 400h200l-300 -400h-200z" />
<glyph unicode="&#xde;" horiz-adv-x="1600" d="M1300 1200q0 83 -117 141.5t-383 58.5h-17q-253 0 -366 -56q-117 -59 -117 -344q0 -283 117 -341.5t383 -60.5q266 0 383 58.5t117 141.5v402zM300 1500q172 100 488 100h12q349 0 524.5 -117t175.5 -283v-402q0 -166 -175.5 -283t-524.5 -117q-325 2 -500 104v-502h-200 v2000h200v-500z" />
<glyph unicode="&#xdf;" d="M500 600q0 400 250 500t250 300q0 195 -102.5 297.5t-247.5 102.5q-167 0 -294 -176q-56 -57 -56 -116v-1508h-200v1500q40 190 115 265q185 235 435 235q228 0 389 -161t161 -439q0 -300 -300 -400q183 0 291.5 -116t108.5 -382q-1 -267 -109 -384.5t-291 -117.5 t-291 116.5t-109 281.5h200q1 -82 50.5 -140t149.5 -58t149.5 59t50.5 243q0 183 -50 240.5t-150 57.5t-150 -58.5t-50 -141.5v-2h-200v2z" />
<glyph unicode="&#xe0;" d="M1100 873q-582 -83 -683 -133q-116 -58 -117 -240q1 -184 117 -242q117 -58 283 -58t283 58q116 58 117 140v475zM1100 1200q-1 82 -117 140q-117 58 -283 58t-283 -58q-116 -58 -117 -140h-200q1 165 176 281q175 117 424 117t425 -117q174 -116 175 -281v-1200h-200 v101q-168 -101 -400 -101q-249 0 -424 117q-175 116 -176 383q1 265 176 381q153 103 824 193v126zM600 1800l-300 400h200l300 -400h-200z" />
<glyph unicode="&#xe1;" d="M1100 873q-582 -83 -683 -133q-116 -58 -117 -240q1 -184 117 -242q117 -58 283 -58t283 58q116 58 117 140v475zM1100 1200q-1 82 -117 140q-117 58 -283 58t-283 -58q-116 -58 -117 -140h-200q1 165 176 281q175 117 424 117t425 -117q174 -116 175 -281v-1200h-200 v101q-168 -101 -400 -101q-249 0 -424 117q-175 116 -176 383q1 265 176 381q153 103 824 193v126zM600 1800l300 400h200l-300 -400h-200z" />
<glyph unicode="&#xe2;" d="M1100 873q-582 -83 -683 -133q-116 -58 -117 -240q1 -184 117 -242q117 -58 283 -58t283 58q116 58 117 140v475zM1100 1200q-1 82 -117 140q-117 58 -283 58t-283 -58q-116 -58 -117 -140h-200q1 165 176 281q175 117 424 117t425 -117q174 -116 175 -281v-1200h-200 v101q-168 -101 -400 -101q-249 0 -424 117q-175 116 -176 383q1 265 176 381q153 103 824 193v126zM800 2200l300 -400h-200l-200 267l-200 -267h-200l300 400h200z" />
<glyph unicode="&#xe3;" d="M1100 873q-582 -83 -683 -133q-116 -58 -117 -240q1 -184 117 -242q117 -58 283 -58t283 58q116 58 117 140v475zM1100 1200q-1 82 -117 140q-117 58 -283 58t-283 -58q-116 -58 -117 -140h-200q1 165 176 281q175 117 424 117t425 -117q174 -116 175 -281v-1200h-200 v101q-168 -101 -400 -101q-249 0 -424 117q-175 116 -176 383q1 265 176 381q153 103 824 193v126zM1100 2000v-200q-100 -100 -200 -100t-200 100t-200 100t-200 -100v200q100 100 200 100t200 -100t200 -100t200 100z" />
<glyph unicode="&#xe4;" d="M1100 873q-582 -83 -683 -133q-116 -58 -117 -240q1 -184 117 -242q117 -58 283 -58t283 58q116 58 117 140v475zM1100 1200q-1 82 -117 140q-117 58 -283 58t-283 -58q-116 -58 -117 -140h-200q1 165 176 281q175 117 424 117t425 -117q174 -116 175 -281v-1200h-200 v101q-168 -101 -400 -101q-249 0 -424 117q-175 116 -176 383q1 265 176 381q153 103 824 193v126zM344 1844q-44 44 -44 106t44 106t106 44t106 -44t44 -106t-44 -106t-106 -44t-106 44zM844 1844q-44 44 -44 106t44 106t106 44t106 -44t44 -106t-44 -106t-106 -44t-106 44 z" />
<glyph unicode="&#xe5;" d="M1100 873q-582 -83 -683 -133q-116 -58 -117 -240q1 -184 117 -242q117 -58 283 -58t283 58q116 58 117 140v475zM1100 1200q-1 82 -117 140q-117 58 -283 58t-283 -58q-116 -58 -117 -140h-200q1 165 176 281q175 117 424 117t425 -117q174 -116 175 -281v-1200h-200 v101q-168 -101 -400 -101q-249 0 -424 117q-175 116 -176 383q1 265 176 381q153 103 824 193v126zM488 1888q-88 88 -88 212t88 212t212 88t212 -88t88 -212t-88 -212t-212 -88t-212 88zM700 2200q-41 0 -70.5 -29.5t-29.5 -70.5t29.5 -70.5t70.5 -29.5t70.5 29.5 t29.5 70.5t-29.5 70.5t-70.5 29.5z" />
<glyph unicode="&#xe6;" horiz-adv-x="2400" d="M1204 1417q31 41 72 68q175 117 424 117t424.5 -117t175.5 -485v-300h-1000v-100q1 -284 117 -341q117 -59 283 -59t283 59q116 57 117 141h200q-1 -167 -175 -283q-176 -117 -425 -117q-232 0 -400 102v-102h-200v101q-168 -101 -400 -101q-249 0 -424 117 q-175 116 -176 383q1 265 176 381q153 103 824 193v126q-1 82 -117 140q-117 58 -283 58t-283 -58q-116 -58 -117 -140h-200q1 165 176 281q175 117 424 117t425 -117q45 -30 79 -64zM2100 1000q0 285 -117 343.5t-283 58.5t-283 -58.5t-117 -343.5v-100h800v100zM1100 873 q-582 -83 -683 -133q-116 -58 -117 -240q1 -184 117 -242q117 -58 283 -58t283 58q116 58 117 140v475z" />
<glyph unicode="&#xe7;" d="M800 5q-48 -5 -100 -5q-249 0 -424 117q-175 116 -176 483v400q0 368 175.5 485t424.5 117t424.5 -117t175.5 -283v-2h-200v2q0 83 -117 141.5t-283 58.5t-283 -58.5t-117 -343.5v-400q1 -284 117 -341q117 -59 283 -59t283 59q116 57 117 141h200q-1 -167 -175 -283 q-58 -39 -125 -65v-152q0 -124 -88 -212t-212 -88t-212 88t-88 212v2h200v-2q0 -41 29.5 -70.5t70.5 -29.5t70.5 29.5t29.5 70.5v105z" />
<glyph unicode="&#xe8;" d="M1100 1000q0 285 -117 343.5t-283 58.5t-283 -58.5t-117 -343.5v-100h800v100zM300 700v-100q1 -284 117 -341q117 -59 283 -59t283 59q116 57 117 141h200q-1 -167 -175 -283q-176 -117 -425 -117t-424 117q-175 116 -176 483v400q0 368 175.5 485t424.5 117t424.5 -117 t175.5 -485v-300h-1000zM600 1800l-300 400h200l300 -400h-200z" />
<glyph unicode="&#xe9;" d="M1100 1000q0 285 -117 343.5t-283 58.5t-283 -58.5t-117 -343.5v-100h800v100zM300 700v-100q1 -284 117 -341q117 -59 283 -59t283 59q116 57 117 141h200q-1 -167 -175 -283q-176 -117 -425 -117t-424 117q-175 116 -176 483v400q0 368 175.5 485t424.5 117t424.5 -117 t175.5 -485v-300h-1000zM600 1800l300 400h200l-300 -400h-200z" />
<glyph unicode="&#xea;" d="M1100 1000q0 285 -117 343.5t-283 58.5t-283 -58.5t-117 -343.5v-100h800v100zM300 700v-100q1 -284 117 -341q117 -59 283 -59t283 59q116 57 117 141h200q-1 -167 -175 -283q-176 -117 -425 -117t-424 117q-175 116 -176 483v400q0 368 175.5 485t424.5 117t424.5 -117 t175.5 -485v-300h-1000zM800 2200l300 -400h-200l-200 267l-200 -267h-200l300 400h200z" />
<glyph unicode="&#xeb;" d="M1100 1000q0 285 -117 343.5t-283 58.5t-283 -58.5t-117 -343.5v-100h800v100zM300 700v-100q1 -284 117 -341q117 -59 283 -59t283 59q116 57 117 141h200q-1 -167 -175 -283q-176 -117 -425 -117t-424 117q-175 116 -176 483v400q0 368 175.5 485t424.5 117t424.5 -117 t175.5 -485v-300h-1000zM344 1844q-44 44 -44 106t44 106t106 44t106 -44t44 -106t-44 -106t-106 -44t-106 44zM844 1844q-44 44 -44 106t44 106t106 44t106 -44t44 -106t-44 -106t-106 -44t-106 44z" />
<glyph unicode="&#xec;" horiz-adv-x="600" d="M500 1600v-1600h-200v1400h-200v200h400zM300 1800l-300 400h200l300 -400h-200z" />
<glyph unicode="&#xed;" horiz-adv-x="600" d="M500 1600v-1600h-200v1400h-200v200h400zM300 1800l300 400h200l-300 -400h-200z" />
<glyph unicode="&#xee;" horiz-adv-x="600" d="M500 1600v-1600h-200v1400h-200v200h400zM400 2200l300 -400h-200l-200 267l-200 -267h-200l300 400h200z" />
<glyph unicode="&#xef;" horiz-adv-x="600" d="M500 1600v-1600h-200v1400h-200v200h400zM-56 1844q-44 44 -44 106t44 106t106 44t106 -44t44 -106t-44 -106t-106 -44t-106 44zM444 1844q-44 44 -44 106t44 106t106 44t106 -44t44 -106t-44 -106t-106 -44t-106 44z" />
<glyph unicode="&#xf0;" d="M1300 400q-2 -168 -175 -283q-176 -117 -425 -117t-424 117q-175 116 -176 483v400q0 368 175.5 485t424.5 117q168 0 303 -53q-57 136 -140 239l-263 -88v100l193 64q-86 82 -193 136h300q46 -31 87 -71l213 71v-100l-144 -48q149 -194 244 -552v-900zM1100 1200l-8 43 q-22 57 -109 101q-117 58 -283 58t-283 -58.5t-117 -343.5v-400q1 -284 117 -341q117 -59 283 -59t283 59q116 57 117 143v798z" />
<glyph unicode="&#xf1;" d="M100 1600h200v-99q168 101 400 101q249 0 424.5 -117t175.5 -283v-1202h-200v1202q0 83 -117 141.5t-283 58.5t-283 -58.5t-117 -343.5v-1000h-200v1600zM1100 2000v-200q-100 -100 -200 -100t-200 100t-200 100t-200 -100v200q100 100 200 100t200 -100t200 -100 t200 100z" />
<glyph unicode="&#xf2;" d="M100 1000q0 368 175.5 485t424.5 117t424.5 -117t175.5 -283v-602q0 -366 -175.5 -483t-424.5 -117t-424.5 117t-175.5 283v600zM1100 1202q0 83 -117 141.5t-283 58.5t-283 -58.5t-117 -343.5v-600q0 -83 117 -141.5t283 -58.5t283 58.5t117 341.5v602zM600 1800 l-300 400h200l300 -400h-200z" />
<glyph unicode="&#xf3;" d="M100 1000q0 368 175.5 485t424.5 117t424.5 -117t175.5 -283v-602q0 -366 -175.5 -483t-424.5 -117t-424.5 117t-175.5 283v600zM1100 1202q0 83 -117 141.5t-283 58.5t-283 -58.5t-117 -343.5v-600q0 -83 117 -141.5t283 -58.5t283 58.5t117 341.5v602zM600 1800 l300 400h200l-300 -400h-200z" />
<glyph unicode="&#xf4;" d="M100 1000q0 368 175.5 485t424.5 117t424.5 -117t175.5 -283v-602q0 -366 -175.5 -483t-424.5 -117t-424.5 117t-175.5 283v600zM1100 1202q0 83 -117 141.5t-283 58.5t-283 -58.5t-117 -343.5v-600q0 -83 117 -141.5t283 -58.5t283 58.5t117 341.5v602zM800 2200 l300 -400h-200l-200 267l-200 -267h-200l300 400h200z" />
<glyph unicode="&#xf5;" d="M100 1000q0 368 175.5 485t424.5 117t424.5 -117t175.5 -283v-602q0 -366 -175.5 -483t-424.5 -117t-424.5 117t-175.5 283v600zM1100 1202q0 83 -117 141.5t-283 58.5t-283 -58.5t-117 -343.5v-600q0 -83 117 -141.5t283 -58.5t283 58.5t117 341.5v602zM1100 2000v-200 q-100 -100 -200 -100t-200 100t-200 100t-200 -100v200q100 100 200 100t200 -100t200 -100t200 100z" />
<glyph unicode="&#xf6;" d="M100 1000q0 368 175.5 485t424.5 117t424.5 -117t175.5 -283v-602q0 -366 -175.5 -483t-424.5 -117t-424.5 117t-175.5 283v600zM1100 1202q0 83 -117 141.5t-283 58.5t-283 -58.5t-117 -343.5v-600q0 -83 117 -141.5t283 -58.5t283 58.5t117 341.5v602zM344 1844 q-44 44 -44 106t44 106t106 44t106 -44t44 -106t-44 -106t-106 -44t-106 44zM844 1844q-44 44 -44 106t44 106t106 44t106 -44t44 -106t-44 -106t-106 -44t-106 44z" />
<glyph unicode="&#xf7;" d="M1300 1100v-200h-1200v200h1200zM806 656q44 -44 44 -106t-44 -106t-106 -44t-106 44t-44 106t44 106t106 44t106 -44zM806 1556q44 -44 44 -106t-44 -106t-106 -44t-106 44t-44 106t44 106t106 44t106 -44z" />
<glyph unicode="&#xf8;" d="M949 1359q-106 43 -249 43q-166 0 -283 -58.5t-117 -343.5v-600q0 -30 15 -56zM1086 1257l-634 -1014q106 -43 248 -43q166 0 283 58.5t117 341.5v602q0 29 -14 55zM207 171q-107 100 -107 229v600q0 368 175.5 485t424.5 117q201 0 354 -76l46 74h200l-106 -170 q106 -99 106 -228v-602q0 -366 -175.5 -483t-424.5 -117q-200 0 -353 76l-47 -76h-200z" />
<glyph unicode="&#xf9;" d="M1300 2h-200v99q-168 -101 -400 -101q-249 0 -424.5 117t-175.5 283v1202h200v-1202q0 -83 117 -141.5t283 -58.5t283 58.5t117 343.5v1000h200v-1600zM600 1800l-300 400h200l300 -400h-200z" />
<glyph unicode="&#xfa;" d="M1300 2h-200v99q-168 -101 -400 -101q-249 0 -424.5 117t-175.5 283v1202h200v-1202q0 -83 117 -141.5t283 -58.5t283 58.5t117 343.5v1000h200v-1600zM600 1800l300 400h200l-300 -400h-200z" />
<glyph unicode="&#xfb;" d="M1300 2h-200v99q-168 -101 -400 -101q-249 0 -424.5 117t-175.5 283v1202h200v-1202q0 -83 117 -141.5t283 -58.5t283 58.5t117 343.5v1000h200v-1600zM800 2200l300 -400h-200l-200 267l-200 -267h-200l300 400h200z" />
<glyph unicode="&#xfc;" d="M1300 2h-200v99q-168 -101 -400 -101q-249 0 -424.5 117t-175.5 283v1202h200v-1202q0 -83 117 -141.5t283 -58.5t283 58.5t117 343.5v1000h200v-1600zM344 1844q-44 44 -44 106t44 106t106 44t106 -44t44 -106t-44 -106t-106 -44t-106 44zM844 1844q-44 44 -44 106 t44 106t106 44t106 -44t44 -106t-44 -106t-106 -44t-106 44z" />
<glyph unicode="&#xfd;" horiz-adv-x="1600" d="M797 7l-697 1593h200l581 -1328l419 1328h200l-503 -1593l3 -7h-5q-95 -400 -212 -512q-117 -88 -283 -88t-283 88q-116 87 -117 210h200q1 -40 59 -68q58 -30 141 -30t142 30q57 28 58 70zM700 1800l300 400h200l-300 -400h-200z" />
<glyph unicode="&#xfe;" d="M300 800v-400q0 -283 117 -341.5t283 -58.5t283 58.5t117 141.5v802q0 83 -117 141.5t-283 58.5t-283 -58.5t-117 -343.5zM100 1600h200v-299q168 101 400 101q249 0 424.5 -117t175.5 -283v-802q0 -166 -175.5 -283t-424.5 -117q-232 0 -400 101v-301h-200v2000z" />
<glyph unicode="&#xff;" horiz-adv-x="1600" d="M797 7l-697 1593h200l581 -1328l419 1328h200l-503 -1593l3 -7h-5q-95 -400 -212 -512q-117 -88 -283 -88t-283 88q-116 87 -117 210h200q1 -40 59 -68q58 -30 141 -30t142 30q57 28 58 70zM444 1844q-44 44 -44 106t44 106t106 44t106 -44t44 -106t-44 -106t-106 -44 t-106 44zM944 1844q-44 44 -44 106t44 106t106 44t106 -44t44 -106t-44 -106t-106 -44t-106 44z" />
<glyph unicode="&#x152;" horiz-adv-x="2800" d="M900 1800q-249 0 -424.5 -234.5t-175.5 -565.5t175.5 -565.5t424.5 -234.5t424.5 234.5t175.5 565.5t-175.5 565.5t-424.5 234.5zM1500 339l-34 -46q-235 -293 -566 -293t-565.5 293t-234.5 707t234.5 707t565.5 293t566 -293l34 -46v339h1200v-200h-1000v-600h600v-200 h-600v-800h1000v-200h-1200v339z" />
<glyph unicode="&#x153;" horiz-adv-x="2400" d="M1200 190q-32 -44 -75 -73q-176 -117 -425 -117t-424.5 117t-175.5 283v600q0 368 175.5 485t424.5 117t425 -117q46 -31 80 -66q31 40 71 66q175 117 424 117t424.5 -117t175.5 -485v-300h-1000v-100q1 -284 117 -341q117 -59 283 -59t283 59q116 57 117 141h200 q-1 -167 -175 -283q-176 -117 -425 -117t-424 117q-43 29 -76 73zM1100 1202q0 83 -117 141.5t-283 58.5t-283 -58.5t-117 -343.5v-600q0 -83 117 -141.5t283 -58.5t283 58.5t117 341.5v602zM2100 1000q0 285 -117 343.5t-283 58.5t-283 -58.5t-117 -343.5v-100h800v100z " />
<glyph unicode="&#x178;" horiz-adv-x="1600" d="M809 1152l491 848h200q-900 -1400 -900 -2000h-200q50 500 325 1000h-25l-600 1000h200zM444 2244q-44 44 -44 106t44 106t106 44t106 -44t44 -106t-44 -106t-106 -44t-106 44zM944 2244q-44 44 -44 106t44 106t106 44t106 -44t44 -106t-44 -106t-106 -44t-106 44z" />
<glyph unicode="&#x2c6;" d="M800 2200l300 -400h-200l-200 267l-200 -267h-200l300 400h200z" />
<glyph unicode="&#x2dc;" horiz-adv-x="1000" d="M900 2000v-200q-100 -100 -200 -100t-200 100t-200 100t-200 -100v200q100 100 200 100t200 -100t200 -100t200 100z" />
<glyph unicode="&#x2000;" />
<glyph unicode="&#x2001;" horiz-adv-x="2800" />
<glyph unicode="&#x2002;" />
<glyph unicode="&#x2003;" horiz-adv-x="2800" />
<glyph unicode="&#x2004;" horiz-adv-x="933" />
<glyph unicode="&#x2005;" horiz-adv-x="700" />
<glyph unicode="&#x2006;" horiz-adv-x="466" />
<glyph unicode="&#x2007;" horiz-adv-x="466" />
<glyph unicode="&#x2008;" horiz-adv-x="350" />
<glyph unicode="&#x2009;" horiz-adv-x="560" />
<glyph unicode="&#x200a;" horiz-adv-x="155" />
<glyph unicode="&#x2010;" horiz-adv-x="1000" d="M900 1200v-200h-800v200h800z" />
<glyph unicode="&#x2011;" horiz-adv-x="1000" d="M900 1200v-200h-800v200h800z" />
<glyph unicode="&#x2012;" horiz-adv-x="1000" d="M900 1200v-200h-800v200h800z" />
<glyph unicode="&#x2013;" d="M1300 1200v-200h-1200v200h1200z" />
<glyph unicode="&#x2014;" horiz-adv-x="2000" d="M1900 1200v-200h-1800v200h1800z" />
<glyph unicode="&#x2018;" horiz-adv-x="500" d="M400 2050q0 -62 -44 -106t-106 -44t-106 44q-41 41 -44 98v12q0 246 300 446q-67 -133 -67 -220q0 -43 17 -74q50 -94 50 -156z" />
<glyph unicode="&#x2019;" horiz-adv-x="557" d="M100 2350q0 62 44 106t106 44t106 -44q41 -41 44 -98v-12q0 -246 -300 -446q67 133 67 220q0 43 -17 74q-50 94 -50 156z" />
<glyph unicode="&#x201a;" horiz-adv-x="500" d="M100 350q0 62 44 106t106 44t106 -44q41 -41 44 -98v-12q0 -246 -300 -446q67 133 67 220q0 43 -17 74q-50 94 -50 156z" />
<glyph unicode="&#x201c;" horiz-adv-x="900" d="M800 2050q0 -62 -44 -106t-106 -44t-106 44q-41 41 -44 98v12q0 246 300 446q-67 -133 -67 -220q0 -43 17 -74q50 -94 50 -156zM400 2050q0 -62 -44 -106t-106 -44t-106 44q-41 41 -44 98v12q0 246 300 446q-67 -133 -67 -220q0 -43 17 -74q50 -94 50 -156z" />
<glyph unicode="&#x201d;" horiz-adv-x="900" d="M100 2350q0 62 44 106t106 44t106 -44q41 -41 44 -98v-12q0 -246 -300 -446q67 133 67 220q0 43 -17 74q-50 94 -50 156zM500 2350q0 62 44 106t106 44t106 -44q41 -41 44 -98v-12q0 -246 -300 -446q67 133 67 220q0 43 -17 74q-50 94 -50 156z" />
<glyph unicode="&#x201e;" horiz-adv-x="900" d="M100 350q0 62 44 106t106 44t106 -44q41 -41 44 -98v-12q0 -246 -300 -446q67 133 67 220q0 43 -17 74q-50 94 -50 156zM500 350q0 62 44 106t106 44t106 -44q41 -41 44 -98v-12q0 -246 -300 -446q67 133 67 220q0 43 -17 74q-50 94 -50 156z" />
<glyph unicode="&#x2022;" horiz-adv-x="1600" d="M1083 1283q117 -117 117 -283t-117 -283t-283 -117t-283 117t-117 283t117 283t283 117t283 -117z" />
<glyph unicode="&#x2026;" horiz-adv-x="1800" d="M144 44q-44 44 -44 106t44 106t106 44t106 -44t44 -106t-44 -106t-106 -44t-106 44zM744 44q-44 44 -44 106t44 106t106 44t106 -44t44 -106t-44 -106t-106 -44t-106 44zM1344 44q-44 44 -44 106t44 106t106 44t106 -44t44 -106t-44 -106t-106 -44t-106 44z" />
<glyph unicode="&#x202f;" horiz-adv-x="560" />
<glyph unicode="&#x2039;" horiz-adv-x="1000" d="M900 700v-200l-800 400v200l800 400v-200l-600 -300z" />
<glyph unicode="&#x203a;" horiz-adv-x="1000" d="M700 1000l-600 300v200l800 -400v-200l-800 -400v200z" />
<glyph unicode="&#x205f;" horiz-adv-x="700" />
<glyph unicode="&#x20ac;" horiz-adv-x="1800" d="M330 1300q49 226 175 407q205 293 595 293q290 0 528 -282q40 -57 72 -118l-173 -95q-19 37 -40 72q-180 223 -387 223q-307 0 -453 -234q-76 -121 -112 -266h765v-200h-797q-3 -49 -3 -100t3 -100h597v-200h-565q36 -145 112 -265q146 -235 453 -235q207 0 400 248 l18 30l182 -78q-27 -48 -59 -94q-251 -306 -541 -306q-390 0 -595 293q-126 181 -175 407h-230v200h203q-3 49 -3 100t3 100h-203v200h230z" />
<glyph unicode="&#x2122;" horiz-adv-x="1800" d="M700 2200v-200h-200v-600h-200v600h-200v200h600zM1000 1800l-100 -400h-200l200 800h200l100 -400l100 400h200l200 -800h-200l-100 400l-100 -400h-200z" />
<glyph unicode="&#xe000;" horiz-adv-x="1600" d="M0 1600h1600v-1600h-1600v1600z" />
<glyph unicode="&#xf001;" d="M500 1400v-1400h-200v1400h-200v200h200q0 368 175.5 485t424.5 117v-200q-166 0 -283 -58.5t-117 -343.5h800v-1600h-200v1400h-600zM1000 1950q0 62 44 106t106 44t106 -44t44 -106t-44 -106t-106 -44t-106 44t-44 106z" />
<glyph unicode="&#xfb01;" d="M500 1400v-1400h-200v1400h-200v200h200q0 368 175.5 485t424.5 117v-200q-166 0 -283 -58.5t-117 -343.5h800v-1600h-200v1400h-600zM1000 1950q0 62 44 106t106 44t106 -44t44 -106t-44 -106t-106 -44t-106 44t-44 106z" />
<glyph unicode="&#xf002;" d="M1000 1400h-500v-1400h-200v1400h-200v200h200q0 368 175.5 485t424.5 117v-200q-166 0 -283 -58.5t-117 -343.5h500v600h200v-1900q1 -42 30 -70q29 -30 70 -30v-200q-124 0 -212 88q-87 87 -88 212v1100z" />
<glyph unicode="&#xfb02;" d="M1000 1400h-500v-1400h-200v1400h-200v200h200q0 368 175.5 485t424.5 117v-200q-166 0 -283 -58.5t-117 -343.5h500v600h200v-1900q1 -42 30 -70q29 -30 70 -30v-200q-124 0 -212 88q-87 87 -88 212v1100z" />
<glyph unicode="&#xfb03;" horiz-adv-x="2600" d="M2500 1600v-1600h-200v1400h-200v200h400zM2244 1844q-44 44 -44 106t44 106t106 44t106 -44t44 -106t-44 -106t-106 -44t-106 44zM1475.5 2085q175.5 117 424.5 117v-200q-166 0 -283 -58.5t-117 -343.5h400v-200h-400v-1400h-200v1400h-200v200h200q0 368 175.5 485z M475.5 2085q175.5 117 424.5 117v-200q-166 0 -283 -58.5t-117 -343.5h400v-200h-400v-1400h-200v1400h-200v200h200q0 368 175.5 485z" />
<glyph unicode="&#xfb04;" horiz-adv-x="2500" d="M2300 300q1 -42 30 -70q29 -30 70 -30v-200q-124 0 -212 88q-87 87 -88 212v1900h200v-1900zM1475.5 2085q175.5 117 424.5 117v-200q-166 0 -283 -58.5t-117 -343.5h400v-200h-400v-1400h-200v1400h-200v200h200q0 368 175.5 485zM475.5 2085q175.5 117 424.5 117v-200 q-166 0 -283 -58.5t-117 -343.5h400v-200h-400v-1400h-200v1400h-200v200h200q0 368 175.5 485z" />
</font>
</defs>
</svg>
